<?xml version="1.0" encoding="UTF-8" standalone="no"?>
<svg width="570px" height="286px" viewBox="0 0 570 286" version="1.1" xmlns="http://www.w3.org/2000/svg" xmlns:xlink="http://www.w3.org/1999/xlink" xmlns:sketch="http://www.bohemiancoding.com/sketch/ns">
    <title>paperboats</title>
    <description>Created with Sketch (http://www.bohemiancoding.com/sketch)</description>
    <defs></defs>
    <g id="Page-1" stroke="none" stroke-width="1" fill="none" fill-rule="evenodd" sketch:type="MSPage">
        <ellipse id="Oval-14" fill="#2DACB4" sketch:type="MSShapeGroup" cx="286.5" cy="230.5" rx="238.5" ry="55.5"></ellipse>
        <g id="Triangle-3-+-Triangle-3-+-Paper-Boat" sketch:type="MSLayerGroup" transform="translate(1.000000, 0.000000)" stroke="#979797">
            <path d="M211.826652,144.375 L0,37.7596154 L326.15625,71.6084719 L211.826652,144.375 Z" id="Triangle-3" fill="#D8D8D8" sketch:type="MSShapeGroup"></path>
            <path d="M453.670402,144.375 L241.84375,37.7596154 L568,71.6084719 L453.670402,144.375 Z" id="Triangle-3" fill="#D8D8D8" sketch:type="MSShapeGroup" transform="translate(404.921875, 91.067308) scale(-1, 1) translate(-404.921875, -91.067308) "></path>
            <g id="Paper-Boat" fill="#FB3D64" sketch:type="MSShapeGroup">
                <polygon id="Triangle-2" fill-opacity="0.958065271" points="284 0 401.59375 155.480769 166.40625 155.480769 "></polygon>
                <polygon id="Triangle-1" fill-opacity="0.958065257" points="287.328125 144.375 450.40625 231 124.25 231 "></polygon>
                <path d="M568,37.7596154 L446.15069,231 L284,145.261866 L568,37.7596154 Z" id="Triangle-2" fill-opacity="0.958065257"></path>
                <path d="M284,37.7596154 L162.15069,231 L0,145.261866 L284,37.7596154 Z" id="Triangle-2" fill-opacity="0.958065257" transform="translate(142.000000, 134.379808) scale(-1, 1) translate(-142.000000, -134.379808) "></path>
            </g>
        </g>
    </g>
</svg>